simulation
nRows=73
nColumns=15
endheader
time  TH_x TH_y TH_z SC_y  SC_z  SC_x  AC_y  AC_z  AC_x  GH_y  GH_z  GH_yy  EL_x  PS_y
0.750000  0.000000  0.000000  0.000000  -23.373769  15.874415  -1.428571  44.820175  35.647406  10.471414  -15.987472  70.118230  33.251448  43.882566  118.028947
0.750146  0.000000  0.000000  0.000000  -23.373769  15.874415  7.142857  48.576440  29.400705  3.501512  -15.987472  70.118230  33.251448  43.882566  118.028947
0.750292  0.000000  0.000000  0.000000  -23.373769  15.874415  15.714286  51.286786  22.834296  -2.640552  -15.987472  70.118230  33.251448  43.882566  118.028947
0.750438  0.000000  0.000000  0.000000  -23.373769  15.874415  24.285714  53.144308  16.054472  -8.206853  -15.987472  70.118230  33.251448  43.882566  118.028947
0.750584  0.000000  0.000000  0.000000  -23.373769  15.874415  32.857143  54.280148  9.140582  -13.401855  -15.987472  70.118230  33.251448  43.882566  118.028947
0.750730  0.000000  0.000000  0.000000  -23.373769  15.874415  41.428571  54.773016  2.155690  -18.397253  -15.987472  70.118230  33.251448  43.882566  118.028947
0.750876  0.000000  0.000000  0.000000  -23.373769  15.874415  50.000000  54.656559  -4.845410  -23.346800  -15.987472  70.118230  33.251448  43.882566  118.028947
0.751022  0.000000  0.000000  0.000000  -19.367641  19.543689  24.285714  70.936163  -1.403400  17.062250  -80.570941  24.897894  115.716289  66.471146  122.298801
0.751168  0.000000  0.000000  0.000000  -19.367641  19.543689  32.857143  70.666658  -9.499777  14.233137  -80.570941  24.897894  115.716289  66.471146  122.298801
0.751314  0.000000  0.000000  0.000000  -19.367641  19.543689  41.428571  69.970380  -17.572314  11.266317  -80.570941  24.897894  115.716289  66.471146  122.298801
0.751460  0.000000  0.000000  0.000000  -19.367641  19.543689  50.000000  68.773484  -25.596491  8.021474  -80.570941  24.897894  115.716289  66.471146  122.298801
0.751606  0.000000  0.000000  0.000000  -16.111156  -0.736769  -10.000000  59.326619  25.083211  9.041804  -87.398155  25.774604  108.133358  58.613097  117.587281
0.751752  0.000000  0.000000  0.000000  -16.111156  -0.736769  -1.428571  60.997970  17.643806  4.465531  -87.398155  25.774604  108.133358  58.613097  117.587281
0.751898  0.000000  0.000000  0.000000  -16.111156  -0.736769  7.142857  62.010046  10.107312  0.256186  -87.398155  25.774604  108.133358  58.613097  117.587281
0.752044  0.000000  0.000000  0.000000  -16.111156  -0.736769  15.714286  62.452700  2.519877  -3.758702  -87.398155  25.774604  108.133358  58.613097  117.587281
0.752190  0.000000  0.000000  0.000000  -16.111156  -0.736769  24.285714  62.363845  -5.079769  -7.726797  -87.398155  25.774604  108.133358  58.613097  117.587281
0.752336  0.000000  0.000000  0.000000  -16.111156  -0.736769  32.857143  61.735911  -12.654606  -11.789906  -87.398155  25.774604  108.133358  58.613097  117.587281
0.752482  0.000000  0.000000  0.000000  -16.111156  -0.736769  41.428571  60.514668  -20.164103  -16.101761  -87.398155  25.774604  108.133358  58.613097  117.587281
0.752629  0.000000  0.000000  0.000000  -16.111156  -0.736769  50.000000  58.589705  -27.558032  -20.848244  -87.398155  25.774604  108.133358  58.613097  117.587281
0.752775  0.000000  0.000000  0.000000  -37.473103  11.273274  -10.000000  49.941924  28.145778  24.873630  -0.131235  74.217355  -10.908128  51.999729  115.214118
0.752921  0.000000  0.000000  0.000000  -37.473103  11.273274  -1.428571  52.429577  21.460605  18.958018  -0.131235  74.217355  -10.908128  51.999729  115.214118
0.753067  0.000000  0.000000  0.000000  -37.473103  11.273274  7.142857  54.100837  14.586044  13.569829  -0.131235  74.217355  -10.908128  51.999729  115.214118
0.753213  0.000000  0.000000  0.000000  -37.473103  11.273274  15.714286  55.076259  7.595600  8.511722  -0.131235  74.217355  -10.908128  51.999729  115.214118
0.753359  0.000000  0.000000  0.000000  -37.473103  11.273274  24.285714  55.424724  0.548568  3.616801  -0.131235  74.217355  -10.908128  51.999729  115.214118
0.753505  0.000000  0.000000  0.000000  -37.473103  11.273274  32.857143  55.170477  -6.502453  -1.266545  -0.131235  74.217355  -10.908128  51.999729  115.214118
0.753651  0.000000  0.000000  0.000000  -37.473103  11.273274  41.428571  54.295846  -13.505335  -6.288885  -0.131235  74.217355  -10.908128  51.999729  115.214118
0.753797  0.000000  0.000000  0.000000  -37.473103  11.273274  50.000000  52.739267  -20.402278  -11.613757  -0.131235  74.217355  -10.908128  51.999729  115.214118
0.753943  0.000000  0.000000  0.000000  -36.916379  17.230719  24.285714  70.091573  24.430447  -6.176386  -10.365247  42.986841  -52.173092  41.182672  119.496334
0.754089  0.000000  0.000000  0.000000  -36.916379  17.230719  32.857143  71.150523  16.342631  -9.208085  -10.365247  42.986841  -52.173092  41.182672  119.496334
0.754235  0.000000  0.000000  0.000000  -36.916379  17.230719  41.428571  71.745194  8.214980  -11.996755  -10.365247  42.986841  -52.173092  41.182672  119.496334
0.754381  0.000000  0.000000  0.000000  -36.916379  17.230719  50.000000  71.938995  0.068912  -14.672672  -10.365247  42.986841  -52.173092  41.182672  119.496334
0.754527  0.000000  0.000000  0.000000  -46.198983  7.135966  -10.000000  56.767488  34.935354  11.404317  10.508883  99.045732  -70.739666  58.168088  121.493738
0.754673  0.000000  0.000000  0.000000  -46.198983  7.135966  -1.428571  59.522523  27.649018  6.113524  10.508883  99.045732  -70.739666  58.168088  121.493738
0.754819  0.000000  0.000000  0.000000  -46.198983  7.135966  7.142857  61.400341  20.187290  1.493803  10.508883  99.045732  -70.739666  58.168088  121.493738
0.754965  0.000000  0.000000  0.000000  -46.198983  7.135966  15.714286  62.587283  12.616088  -2.698814  10.508883  99.045732  -70.739666  58.168088  121.493738
0.755111  0.000000  0.000000  0.000000  -46.198983  7.135966  24.285714  63.193070  4.983302  -6.648413  10.508883  99.045732  -70.739666  58.168088  121.493738
0.755257  0.000000  0.000000  0.000000  -46.198983  7.135966  32.857143  63.271073  -2.672491  -10.506709  10.508883  99.045732  -70.739666  58.168088  121.493738
0.755403  0.000000  0.000000  0.000000  -46.198983  7.135966  41.428571  62.828031  -10.316035  -14.413650  10.508883  99.045732  -70.739666  58.168088  121.493738
0.755549  0.000000  0.000000  0.000000  -46.198983  7.135966  50.000000  61.825255  -17.910317  -18.515426  10.508883  99.045732  -70.739666  58.168088  121.493738
0.755695  0.000000  0.000000  0.000000  -13.415315  3.643541  -1.428571  56.140443  40.989856  13.651682  -31.067655  84.114563  104.640994  23.113850  118.969989
0.755841  0.000000  0.000000  0.000000  -13.415315  3.643541  7.142857  59.626064  33.722962  7.921711  -31.067655  84.114563  104.640994  23.113850  118.969989
0.755987  0.000000  0.000000  0.000000  -13.415315  3.643541  15.714286  62.040385  26.233383  3.102301  -31.067655  84.114563  104.640994  23.113850  118.969989
0.756133  0.000000  0.000000  0.000000  -13.415315  3.643541  24.285714  63.657091  18.602771  -1.125973  -31.067655  84.114563  104.640994  23.113850  118.969989
0.756279  0.000000  0.000000  0.000000  -13.415315  3.643541  32.857143  64.642515  10.885994  -4.987680  -31.067655  84.114563  104.640994  23.113850  118.969989
0.756425  0.000000  0.000000  0.000000  -13.415315  3.643541  41.428571  65.090661  3.123432  -8.652784  -31.067655  84.114563  104.640994  23.113850  118.969989
0.756571  0.000000  0.000000  0.000000  -13.415315  3.643541  50.000000  65.042377  -4.651695  -12.263752  -31.067655  84.114563  104.640994  23.113850  118.969989
0.756717  0.000000  0.000000  0.000000  -33.316612  0.336377  41.428571  70.707597  8.151762  8.386901  -39.456921  42.733350  -4.702791  33.530237  117.540002
0.756863  0.000000  0.000000  0.000000  -33.316612  0.336377  50.000000  70.910112  0.055029  5.564399  -39.456921  42.733350  -4.702791  33.530237  117.540002
0.757009  0.000000  0.000000  0.000000  -24.849173  12.226276  -1.428571  63.339226  15.833803  24.603089  -54.676833  18.377778  4.937231  74.717158  122.597570
0.757155  0.000000  0.000000  0.000000  -24.849173  12.226276  7.142857  64.145990  8.143812  20.729378  -54.676833  18.377778  4.937231  74.717158  122.597570
0.757301  0.000000  0.000000  0.000000  -24.849173  12.226276  15.714286  64.424914  0.418511  17.002746  -54.676833  18.377778  4.937231  74.717158  122.597570
0.757447  0.000000  0.000000  0.000000  -24.849173  12.226276  24.285714  64.200833  -7.308559  13.283493  -54.676833  18.377778  4.937231  74.717158  122.597570
0.757593  0.000000  0.000000  0.000000  -24.849173  12.226276  32.857143  63.453836  -15.004104  9.432876  -54.676833  18.377778  4.937231  74.717158  122.597570
0.757739  0.000000  0.000000  0.000000  -24.849173  12.226276  41.428571  62.115518  -22.630115  5.294474  -54.676833  18.377778  4.937231  74.717158  122.597570
0.757886  0.000000  0.000000  0.000000  -24.849173  12.226276  50.000000  60.055776  -30.137536  0.671353  -54.676833  18.377778  4.937231  74.717158  122.597570
0.758032  0.000000  0.000000  0.000000  -16.859753  9.530475  7.142857  63.149394  29.261773  11.487183  -33.928633  29.751959  44.629747  70.520413  118.875398
0.758178  0.000000  0.000000  0.000000  -16.859753  9.530475  15.714286  64.934809  21.551381  7.336642  -33.928633  29.751959  44.629747  70.520413  118.875398
0.758324  0.000000  0.000000  0.000000  -16.859753  9.530475  24.285714  66.067863  13.748752  3.609551  -33.928633  29.751959  44.629747  70.520413  118.875398
0.758470  0.000000  0.000000  0.000000  -16.859753  9.530475  32.857143  66.663835  5.893801  0.124909  -33.928633  29.751959  44.629747  70.520413  118.875398
0.758616  0.000000  0.000000  0.000000  -16.859753  9.530475  41.428571  66.779727  -1.982182  -3.261796  -33.928633  29.751959  44.629747  70.520413  118.875398
0.758762  0.000000  0.000000  0.000000  -16.859753  9.530475  50.000000  66.426327  -9.851179  -6.681050  -33.928633  29.751959  44.629747  70.520413  118.875398
0.758908  0.000000  0.000000  0.000000  -30.878535  17.113492  24.285714  71.962087  -0.047929  14.964896  -54.788507  51.638732  43.487413  31.212767  120.709301
0.759054  0.000000  0.000000  0.000000  -30.878535  17.113492  32.857143  71.769480  -8.195102  12.292422  -54.788507  51.638732  43.487413  31.212767  120.709301
0.759200  0.000000  0.000000  0.000000  -30.878535  17.113492  41.428571  71.176554  -16.323950  9.507615  -54.788507  51.638732  43.487413  31.212767  120.709301
0.759346  0.000000  0.000000  0.000000  -30.878535  17.113492  50.000000  70.120052  -24.413110  6.480370  -54.788507  51.638732  43.487413  31.212767  120.709301
0.759492  0.000000  0.000000  0.000000  -26.120649  21.066596  -1.428571  62.353068  31.243576  12.950875  -24.652373  63.559087  43.849035  61.547432  116.541980
0.759638  0.000000  0.000000  0.000000  -26.120649  21.066596  7.142857  64.350576  23.578586  8.623296  -24.652373  63.559087  43.849035  61.547432  116.541980
0.759784  0.000000  0.000000  0.000000  -26.120649  21.066596  15.714286  65.649537  15.807148  4.778701  -24.652373  63.559087  43.849035  61.547432  116.541980
0.759930  0.000000  0.000000  0.000000  -26.120649  21.066596  24.285714  66.384482  7.973153  1.221061  -24.652373  63.559087  43.849035  61.547432  116.541980
0.760076  0.000000  0.000000  0.000000  -26.120649  21.066596  32.857143  66.626368  0.109965  -2.201871  -24.652373  63.559087  43.849035  61.547432  116.541980
0.760222  0.000000  0.000000  0.000000  -26.120649  21.066596  41.428571  66.397730  -7.753609  -5.623000  -24.652373  63.559087  43.849035  61.547432  116.541980
0.760368  0.000000  0.000000  0.000000  -26.120649  21.066596  50.000000  65.677285  -15.588843  -9.174934  -24.652373  63.559087  43.849035  61.547432  116.541980
0.760514  0.000000  0.000000  0.000000  -39.931478  14.074584  -10.000000  58.658695  29.369584  7.681393  -5.628730  77.273679  14.706611  64.269783  122.814994
